HIERARCHY
ROOT hip
{
  OFFSET 0.00112043 5.09927 -9.65472
  CHANNELS 6 Xposition Yposition Zposition Zrotation Xrotation Yrotation
  JOINT abdomen
  {
    OFFSET 0 -1.186 -1.5018
    CHANNELS 3 Zrotation Xrotation Yrotation
    JOINT abdomen2
    {
      OFFSET 0 9.964 0.2134
      CHANNELS 3 Zrotation Xrotation Yrotation
      JOINT chest
      {
        OFFSET 0 13.134 -3.2573
        CHANNELS 3 Zrotation Xrotation Yrotation
        JOINT neck
        {
          OFFSET 0 20.686 -1.6905
          CHANNELS 3 Zrotation Xrotation Yrotation
          JOINT head
          {
            OFFSET 0 7.238 -0.1237
            CHANNELS 3 Zrotation Xrotation Yrotation
            End Site
            {
              OFFSET 0 0 0
            }
          }
        }
        JOINT lCollar
        {
          OFFSET 1.7069 20.075 5.0056
          CHANNELS 3 Zrotation Xrotation Yrotation
          JOINT lShldr
          {
            OFFSET 13.6458 -0.047 -4.849
            CHANNELS 3 Zrotation Xrotation Yrotation
            JOINT lForeArm
            {
              OFFSET 28.3255 -0.9759 2.2888
              CHANNELS 3 Zrotation Xrotation Yrotation
              JOINT lHand
              {
                OFFSET 22.1583 -0.53 10.8316
                CHANNELS 3 Zrotation Xrotation Yrotation
                JOINT lThumb1
                {
                  OFFSET 0.786 0.112 2.5817
                  CHANNELS 3 Zrotation Xrotation Yrotation
                  JOINT lThumb2
                  {
                    OFFSET 0.3601 -0.878 4.2331
                    CHANNELS 3 Zrotation Xrotation Yrotation
                    JOINT lThumb2_End
                    {
                      OFFSET 1.8127 -1.216 2.2227
                      CHANNELS 3 Zrotation Xrotation Yrotation
                      End Site
                      {
                        OFFSET 0.0181 -0.0122 0.0222
                      }
                    }
                  }
                }
                JOINT lCarpal1
                {
                  OFFSET 0.9571 1.114 1.7695
                  CHANNELS 3 Zrotation Xrotation Yrotation
                  JOINT lIndex1
                  {
                    OFFSET 4.1246 0.487 4.1451
                    CHANNELS 3 Zrotation Xrotation Yrotation
                    JOINT lIndex2
                    {
                      OFFSET 3.4052 -1.454 2.7682
                      CHANNELS 3 Zrotation Xrotation Yrotation
                      JOINT lIndex2_End
                      {
                        OFFSET 1.4531 -1.795 1.2713
                        CHANNELS 3 Zrotation Xrotation Yrotation
                        End Site
                        {
                          OFFSET 0.0145 -0.0179 0.0127
                        }
                      }
                    }
                  }
                  JOINT lMid1
                  {
                    OFFSET 5.6954 0.21 2.1184
                    CHANNELS 3 Zrotation Xrotation Yrotation
                    JOINT lMid2
                    {
                      OFFSET 3.9766 -1.54 2.3863
                      CHANNELS 3 Zrotation Xrotation Yrotation
                      JOINT lMid2_End
                      {
                        OFFSET 1.4042 -1.926 1.125
                        CHANNELS 3 Zrotation Xrotation Yrotation
                        End Site
                        {
                          OFFSET 0.014 -0.0193 0.0113
                        }
                      }
                    }
                  }
                }
                JOINT lCarpal2
                {
                  OFFSET 2.0956 0.66 -0.3894
                  CHANNELS 3 Zrotation Xrotation Yrotation
                  JOINT lRing1
                  {
                    OFFSET 5.0395 -0.09 2.4971
                    CHANNELS 3 Zrotation Xrotation Yrotation
                    JOINT lRing2
                    {
                      OFFSET 3.7921 -1.552 1.4806
                      CHANNELS 3 Zrotation Xrotation Yrotation
                      JOINT lRing2_End
                      {
                        OFFSET 1.4655 -1.808 0.9609
                        CHANNELS 3 Zrotation Xrotation Yrotation
                        End Site
                        {
                          OFFSET 0.0147 -0.0181 0.0096
                        }
                      }
                    }
                  }
                  JOINT lPinky1
                  {
                    OFFSET 4.9141 -1.269 0.3591
                    CHANNELS 3 Zrotation Xrotation Yrotation
                    JOINT lPinky2
                    {
                      OFFSET 3.1477 -1.685 0.8462
                      CHANNELS 3 Zrotation Xrotation Yrotation
                      JOINT lPinky2_End
                      {
                        OFFSET 0.8055 -1.585 0.7955
                        CHANNELS 3 Zrotation Xrotation Yrotation
                        End Site
                        {
                          OFFSET 0.0081 -0.0158 0.008
                        }
                      }
                    }
                  }
                }
              }
            }
          }
        }
        JOINT rCollar
        {
          OFFSET -1.7069 20.075 5.0056
          CHANNELS 3 Zrotation Xrotation Yrotation
          JOINT rShldr
          {
            OFFSET -13.6458 -0.047 -4.849
            CHANNELS 3 Zrotation Xrotation Yrotation
            JOINT rForeArm
            {
              OFFSET -28.3255 -0.9759 2.2888
              CHANNELS 3 Zrotation Xrotation Yrotation
              JOINT rHand
              {
                OFFSET -22.1583 -0.53 10.8316
                CHANNELS 3 Zrotation Xrotation Yrotation
                JOINT rThumb1
                {
                  OFFSET -0.786 0.112 2.5817
                  CHANNELS 3 Zrotation Xrotation Yrotation
                  JOINT rThumb2
                  {
                    OFFSET -0.3601 -0.878 4.2331
                    CHANNELS 3 Zrotation Xrotation Yrotation
                    JOINT rThumb2_End
                    {
                      OFFSET -1.8127 -1.216 2.2227
                      CHANNELS 3 Zrotation Xrotation Yrotation
                      End Site
                      {
                        OFFSET -0.0181 -0.0122 0.0222
                      }
                    }
                  }
                }
                JOINT rCarpal1
                {
                  OFFSET -0.9571 1.114 1.7695
                  CHANNELS 3 Zrotation Xrotation Yrotation
                  JOINT rIndex1
                  {
                    OFFSET -4.1246 0.487 4.1451
                    CHANNELS 3 Zrotation Xrotation Yrotation
                    JOINT rIndex2
                    {
                      OFFSET -3.4052 -1.454 2.7682
                      CHANNELS 3 Zrotation Xrotation Yrotation
                      JOINT rIndex2_End
                      {
                        OFFSET -1.4531 -1.795 1.2713
                        CHANNELS 3 Zrotation Xrotation Yrotation
                        End Site
                        {
                          OFFSET -0.0145 -0.018 0.0127
                        }
                      }
                    }
                  }
                  JOINT rMid1
                  {
                    OFFSET -5.6954 0.21 2.1184
                    CHANNELS 3 Zrotation Xrotation Yrotation
                    JOINT rMid2
                    {
                      OFFSET -3.9766 -1.54 2.3863
                      CHANNELS 3 Zrotation Xrotation Yrotation
                      JOINT rMid2_End
                      {
                        OFFSET -1.4042 -1.926 1.125
                        CHANNELS 3 Zrotation Xrotation Yrotation
                        End Site
                        {
                          OFFSET -0.014 -0.0193 0.0113
                        }
                      }
                    }
                  }
                }
                JOINT rCarpal2
                {
                  OFFSET -2.0956 0.66 -0.3894
                  CHANNELS 3 Zrotation Xrotation Yrotation
                  JOINT rRing1
                  {
                    OFFSET -5.0395 -0.09 2.4971
                    CHANNELS 3 Zrotation Xrotation Yrotation
                    JOINT rRing2
                    {
                      OFFSET -3.7921 -1.552 1.4806
                      CHANNELS 3 Zrotation Xrotation Yrotation
                      JOINT rRing2_End
                      {
                        OFFSET -1.4655 -1.808 0.9609
                        CHANNELS 3 Zrotation Xrotation Yrotation
                        End Site
                        {
                          OFFSET -0.0147 -0.0181 0.0096
                        }
                      }
                    }
                  }
                  JOINT rPinky1
                  {
                    OFFSET -4.9141 -1.269 0.3592
                    CHANNELS 3 Zrotation Xrotation Yrotation
                    JOINT rPinky2
                    {
                      OFFSET -3.1477 -1.685 0.8462
                      CHANNELS 3 Zrotation Xrotation Yrotation
                      JOINT rPinky2_End
                      {
                        OFFSET -0.8055 -1.585 0.7955
                        CHANNELS 3 Zrotation Xrotation Yrotation
                        End Site
                        {
                          OFFSET -0.0081 -0.0158 0.008
                        }
                      }
                    }
                  }
                }
              }
            }
          }
        }
      }
    }
  }
  JOINT lThigh
  {
    OFFSET 8.367 -8.2066 0.5982
    CHANNELS 3 Zrotation Xrotation Yrotation
    JOINT lShin
    {
      OFFSET 2.1923 -43.463 -0.4932
      CHANNELS 3 Zrotation Xrotation Yrotation
      JOINT lFoot
      {
        OFFSET 0.7333 -45.8593 -2.6451
        CHANNELS 3 Zrotation Xrotation Yrotation
        End Site
        {
          OFFSET 2.6618 -4.2699 12.3931
        }
      }
    }
  }
  JOINT rThigh
  {
    OFFSET -8.367 -8.2066 0.5982
    CHANNELS 3 Zrotation Xrotation Yrotation
    JOINT rShin
    {
      OFFSET -2.1923 -43.463 -0.4931
      CHANNELS 3 Zrotation Xrotation Yrotation
      JOINT rFoot
      {
        OFFSET -0.7333 -45.8593 -2.6451
        CHANNELS 3 Zrotation Xrotation Yrotation
        End Site
        {
          OFFSET -2.6618 -4.2699 12.3931
        }
      }
    }
  }
}
MOTION
Frames:	4
Frame Time:	0.0333333
0.00112043 5.09927 -9.65472 -180 -88.2959 -180 -0.0296205 -1.04688 -0.149574 -0.0619904 -2.09368 -0.299764 -0.0619903 -2.09367 -0.299764 9.91652e-006 39.9982 -5.10004e-006 9.3146 -23.2804 9.56722 -19.4107 12.8899 1.03677 -58.6268 -8.86895 -26.2699 -9.02624 36.2484 16.3159 -57.008 -42.0211 11.9646 3.53113e-031 -3.18055e-015 6.36111e-015 -6.36111e-015 -6.36111e-015 3.18055e-015 3.18055e-015 -3.18055e-015 -1.27222e-014 -0 0 6.36111e-015 -3.18055e-015 0 1.27222e-014 -3.18055e-015 0 -6.36111e-015 -3.18055e-015 -1.27222e-014 -6.36111e-015 -3.18055e-015 0 1.27222e-014 -3.18055e-015 0 -6.36111e-015 -3.18055e-015 -1.27222e-014 -6.36111e-015 -0 0 6.36111e-015 -3.18055e-015 0 1.27222e-014 -3.18055e-015 0 -6.36111e-015 -3.18055e-015 -1.27222e-014 -6.36111e-015 -3.18055e-015 0 1.27222e-014 -3.18055e-015 0 -6.36111e-015 -3.18055e-015 -1.27222e-014 -6.36111e-015 20.8461 12.7158 -0.24292 57.8195 -9.32259 26.6083 6.75298 36.3873 -16.3083 56.2641 -40.8249 -14.5137 -5.84828e-006 -1.35879e-006 -4.37437e-006 6.36111e-015 1.27222e-014 3.18055e-015 6.36111e-015 9.54166e-015 -3.18055e-015 9.54166e-015 0 3.18055e-015 -5.84828e-006 -1.35879e-006 -4.37437e-006 3.18055e-015 3.18055e-015 3.18055e-015 -5.29669e-031 3.18055e-015 9.54166e-015 -5.84828e-006 -1.35879e-006 -4.37437e-006 3.18055e-015 3.18055e-015 3.18055e-015 -5.29669e-031 3.18055e-015 9.54166e-015 9.54166e-015 0 3.18055e-015 -5.84828e-006 -1.35879e-006 -4.37437e-006 3.18055e-015 3.18055e-015 3.18055e-015 -5.29669e-031 3.18055e-015 9.54166e-015 -5.84828e-006 -1.35879e-006 -4.37437e-006 3.18055e-015 3.18055e-015 3.18055e-015 -5.29669e-031 3.18055e-015 9.54166e-015 21.6778 -26.1956 49.6076 56.6441 49.7575 -43.4814 -0.537243 22.6752 10.0117 -21.6983 -26.1923 -49.6287 -56.6885 49.7447 43.5305 0.531097 22.6663 -10.024 
0.00109718 4.90272 -9.67523 -180 -87.7703 -180 -0.0304306 -0.881383 -0.149384 -0.0631709 -1.76267 -0.299289 -0.0631707 -1.76267 -0.299289 4.60933e-006 39.9975 -9.30284e-006 9.21745 -23.0471 9.46859 -19.7458 12.4197 0.611524 -58.3142 -9.0615 -26.166 -8.66091 36.2211 16.2767 -57.2929 -42.0535 11.995 -5.84991e-006 1.40622e-006 -4.38798e-006 -3.18055e-015 -1.27222e-014 9.54166e-015 -5.24241e-006 -1.21499e-006 -2.8338e-006 1.76556e-031 -3.18055e-015 3.18055e-015 -5.84991e-006 1.40622e-006 -4.38798e-006 -0 -6.36111e-015 -0 -5.24241e-006 -1.21499e-006 -2.8338e-006 -5.84991e-006 1.40622e-006 -4.38798e-006 -0 -6.36111e-015 -0 -5.24241e-006 -1.21499e-006 -2.8338e-006 1.76556e-031 -3.18055e-015 3.18055e-015 -5.84991e-006 1.40622e-006 -4.38798e-006 -0 -6.36111e-015 -0 -5.24241e-006 -1.21499e-006 -2.8338e-006 -5.84991e-006 1.40622e-006 -4.38798e-006 -0 -6.36111e-015 -0 -5.24241e-006 -1.21499e-006 -2.8338e-006 21.2636 12.2414 0.240908 57.4434 -9.55095 26.4757 6.34702 36.3613 -16.2626 56.5268 -40.8174 -14.6119 -6.36111e-015 0 6.36111e-015 1.76608e-006 -4.37728e-006 1.35595e-006 5.22058e-006 -1.25433e-006 2.79539e-006 -3.18055e-015 0 -3.18055e-015 -0 0 6.36111e-015 1.76608e-006 -4.37728e-006 1.35595e-006 5.22058e-006 -1.25433e-006 2.79539e-006 -0 0 6.36111e-015 1.76608e-006 -4.37728e-006 1.35595e-006 5.22058e-006 -1.25433e-006 2.79539e-006 -3.18055e-015 0 -3.18055e-015 -0 0 6.36111e-015 1.76608e-006 -4.37728e-006 1.35595e-006 5.22058e-006 -1.25433e-006 2.79539e-006 -0 0 6.36111e-015 1.76608e-006 -4.37728e-006 1.35595e-006 5.22058e-006 -1.25433e-006 2.79539e-006 21.6727 -25.7836 49.5527 56.6431 49.7573 -43.4822 -0.384186 22.7279 9.90636 -21.6931 -25.7803 -49.5739 -56.6875 49.7445 43.5313 0.377669 22.7191 -9.91857 
0.00107632 4.706 -9.69528 -180 -87.2448 -180 -0.0312411 -0.715956 -0.149193 -0.0643542 -1.43182 -0.298812 -0.0643542 -1.43185 -0.298812 -1.77438e-006 39.9977 1.58279e-005 9.12085 -22.8135 9.37049 -20.0838 11.9521 0.184414 -58.001 -9.25349 -26.061 -8.29578 36.1935 16.2377 -57.5779 -42.086 12.0251 3.18055e-015 0 6.36111e-015 -2.63666e-006 6.79454e-006 -4.82839e-007 -2.62125e-006 -6.09087e-007 -1.41849e-006 3.18055e-015 6.36111e-015 -6.36111e-015 -3.18055e-015 0 9.54166e-015 -2.63666e-006 6.79454e-006 -4.82839e-007 -2.62125e-006 -6.09087e-007 -1.41849e-006 -3.18055e-015 0 9.54166e-015 -2.63666e-006 6.79454e-006 -4.82839e-007 -2.62125e-006 -6.09087e-007 -1.41849e-006 3.18055e-015 6.36111e-015 -6.36111e-015 -3.18055e-015 0 9.54166e-015 -2.63666e-006 6.79454e-006 -4.82839e-007 -2.62125e-006 -6.09087e-007 -1.41849e-006 -3.18055e-015 0 9.54166e-015 -2.63666e-006 6.79454e-006 -4.82839e-007 -2.62125e-006 -6.09087e-007 -1.41849e-006 21.6845 11.7707 0.727241 57.0665 -9.77842 26.3414 5.94123 36.335 -16.2171 56.7894 -40.8102 -14.7102 -4.00913e-006 -9.52812e-007 1.21004e-006 6.76607e-006 3.28602e-006 1.54064e-006 7.06225e-031 -6.36111e-015 6.36111e-015 3.18055e-015 0 9.54166e-015 -4.00913e-006 -9.52812e-007 1.21004e-006 6.76607e-006 3.28602e-006 1.54064e-006 -9.54166e-015 -9.54166e-015 9.54166e-015 -4.00913e-006 -9.52812e-007 1.21004e-006 6.76607e-006 3.28602e-006 1.54064e-006 -9.54166e-015 -9.54166e-015 9.54166e-015 3.18055e-015 0 9.54166e-015 -4.00913e-006 -9.52812e-007 1.21004e-006 6.76607e-006 3.28602e-006 1.54064e-006 -9.54166e-015 -9.54166e-015 9.54166e-015 -4.00913e-006 -9.52812e-007 1.21004e-006 6.76607e-006 3.28602e-006 1.54064e-006 -9.54166e-015 -9.54166e-015 9.54166e-015 21.6682 -25.3717 49.4979 56.6424 49.7572 -43.4832 -0.231086 22.7805 9.80083 -21.6883 -25.3685 -49.5194 -56.687 49.7444 43.5324 0.22417 22.7716 -9.813 
0.00105191 4.50912 -9.71491 -180 -86.7193 -180 -0.0320526 -0.550607 -0.149004 -0.0655418 -1.10116 -0.298336 -0.0655419 -1.10115 -0.298336 -4.6876e-005 39.9979 0.000105039 9.02478 -22.5796 9.27293 -20.4247 11.4873 -0.244581 -57.6873 -9.4449 -25.955 -7.93081 36.1659 16.199 -57.8629 -42.1186 12.0551 6.36111e-015 0 3.18055e-015 1.27222e-014 6.36111e-015 -3.18055e-015 6.36111e-015 3.18055e-015 -3.18055e-015 6.36111e-015 -3.18055e-015 3.18055e-015 9.54166e-015 0 1.27222e-014 9.54166e-015 3.18055e-015 6.36111e-015 3.18055e-015 3.18055e-015 -0 9.54166e-015 0 1.27222e-014 9.54166e-015 3.18055e-015 6.36111e-015 3.18055e-015 3.18055e-015 -0 6.36111e-015 -3.18055e-015 3.18055e-015 9.54166e-015 0 1.27222e-014 9.54166e-015 3.18055e-015 6.36111e-015 3.18055e-015 3.18055e-015 -0 9.54166e-015 0 1.27222e-014 9.54166e-015 3.18055e-015 6.36111e-015 3.18055e-015 3.18055e-015 -0 22.1085 11.3038 1.2161 56.6888 -10.005 26.2056 5.53569 36.3085 -16.1719 57.0521 -40.8033 -14.8085 -3.23819e-006 -1.97975e-006 -2.98137e-006 4.01039e-006 9.50735e-007 -1.20755e-006 -2.60897e-006 6.29217e-007 -1.40142e-006 -0 -6.36111e-015 -0 -3.23819e-006 -1.97975e-006 -2.98137e-006 4.01039e-006 9.50735e-007 -1.20755e-006 -2.60897e-006 6.29217e-007 -1.40142e-006 -3.23819e-006 -1.97975e-006 -2.98137e-006 4.01039e-006 9.50735e-007 -1.20755e-006 -2.60897e-006 6.29217e-007 -1.40142e-006 -0 -6.36111e-015 -0 -3.23819e-006 -1.97975e-006 -2.98137e-006 4.01039e-006 9.50735e-007 -1.20755e-006 -2.60897e-006 6.29217e-007 -1.40142e-006 -3.23819e-006 -1.97975e-006 -2.98137e-006 4.01039e-006 9.50735e-007 -1.20755e-006 -2.60897e-006 6.29217e-007 -1.40142e-006 21.6643 -24.9599 49.4435 56.6418 49.7571 -43.4844 -0.0778753 22.8327 9.69518 -21.6842 -24.9568 -49.4651 -56.6863 49.7443 43.5335 0.070557 22.8239 -9.70725 
